<?xml version="1.0" encoding="UTF-8" standalone="no"?>
<!-- Created with Inkscape (http://www.inkscape.org/) -->

<svg
   xmlns:dc="http://purl.org/dc/elements/1.1/"
   xmlns:cc="http://creativecommons.org/ns#"
   xmlns:rdf="http://www.w3.org/1999/02/22-rdf-syntax-ns#"
   xmlns:svg="http://www.w3.org/2000/svg"
   xmlns="http://www.w3.org/2000/svg"
   xmlns:xlink="http://www.w3.org/1999/xlink"
   xmlns:sodipodi="http://sodipodi.sourceforge.net/DTD/sodipodi-0.dtd"
   xmlns:inkscape="http://www.inkscape.org/namespaces/inkscape"
   width="52mm"
   height="37mm"
   viewBox="0 0 52 37"
   version="1.1"
   id="svg8"
   inkscape:version="0.92.3 (2405546, 2018-03-11)"
   sodipodi:docname="logo.svg">
  <defs
     id="defs2">
    <linearGradient
       inkscape:collect="always"
       id="linearGradient6265">
      <stop
         style="stop-color:#808080;stop-opacity:1;"
         offset="0"
         id="stop6261" />
      <stop
         style="stop-color:#808080;stop-opacity:0;"
         offset="1"
         id="stop6263" />
    </linearGradient>
    <linearGradient
       inkscape:collect="always"
       id="linearGradient4624">
      <stop
         style="stop-color:#ff0000;stop-opacity:1;"
         offset="0"
         id="stop4620" />
      <stop
         style="stop-color:#ff0000;stop-opacity:0;"
         offset="1"
         id="stop4622" />
    </linearGradient>
    <linearGradient
       inkscape:collect="always"
       xlink:href="#linearGradient4624"
       id="linearGradient4626"
       x1="41.947681"
       y1="281.24301"
       x2="25.521627"
       y2="267.9487"
       gradientUnits="userSpaceOnUse"
       gradientTransform="translate(-15.341271,-7.1561416)" />
    <linearGradient
       inkscape:collect="always"
       xlink:href="#linearGradient6265"
       id="linearGradient6267"
       x1="14.730985"
       y1="280.09624"
       x2="35.397616"
       y2="280.09624"
       gradientUnits="userSpaceOnUse" />
  </defs>
  <sodipodi:namedview
     id="base"
     pagecolor="#ffffff"
     bordercolor="#666666"
     borderopacity="1.0"
     inkscape:pageopacity="0.0"
     inkscape:pageshadow="2"
     inkscape:zoom="4"
     inkscape:cx="111.80921"
     inkscape:cy="84.042557"
     inkscape:document-units="mm"
     inkscape:current-layer="layer1"
     showgrid="false"
     inkscape:window-width="1920"
     inkscape:window-height="1052"
     inkscape:window-x="1600"
     inkscape:window-y="0"
     inkscape:window-maximized="1" />
  <metadata
     id="metadata5">
    <rdf:RDF>
      <cc:Work
         rdf:about="">
        <dc:format>image/svg+xml</dc:format>
        <dc:type
           rdf:resource="http://purl.org/dc/dcmitype/StillImage" />
        <dc:title></dc:title>
      </cc:Work>
    </rdf:RDF>
  </metadata>
  <g
     inkscape:label="Layer 1"
     inkscape:groupmode="layer"
     id="layer1"
     transform="translate(0,-260)">
    <g
       transform="matrix(-1.4358836,0.98096663,-0.84334396,-1.2344394,278.11281,607.20939)"
       id="g4765">
      <path
         style="fill:#808080;fill-opacity:1;stroke:#000000;stroke-width:0.16500001;stroke-linecap:butt;stroke-linejoin:miter;stroke-miterlimit:4;stroke-dasharray:none;stroke-opacity:1"
         d="m 12.184149,289.32936 c 0.506699,0.5985 1.013397,0.54673 1.520096,0.0234 l 0.0222,-3.13416 2.945767,-0.28011 c 0.427032,0.41792 0.604868,0.91055 0.914113,-0.0703 0.718001,-0.41164 1.050208,-0.84101 -0.09354,-1.14591 -0.312512,-0.36515 -0.609785,-0.68864 -0.983854,0.17418 l -2.851464,0.22335 0.467717,-20.32251 -0.888671,-0.81851 -1.028988,0.88867 -0.02338,20.29912 -2.4805899,-0.31421 c -0.4306167,-0.96922 -0.5748511,-0.19428 -0.8870058,0.0803 -0.9776346,0.4764 -0.5771404,0.46463 -0.023386,0.81852 0.2791726,0.57825 0.5063754,0.90447 0.9099528,0.23868 l 2.4342569,0.18188 z"
         id="path4731"
         inkscape:connector-curvature="0"
         sodipodi:nodetypes="cccccccccccccccccc" />
      <path
         style="fill:none;stroke:#000000;stroke-width:0.16500001;stroke-linecap:butt;stroke-linejoin:miter;stroke-miterlimit:4;stroke-dasharray:none;stroke-opacity:1"
         d="m 12.184146,285.16658 1.473321,-0.0468"
         id="path4733"
         inkscape:connector-curvature="0"
         sodipodi:nodetypes="cc" />
      <path
         style="fill:none;stroke:#000000;stroke-width:0.065;stroke-linecap:round;stroke-linejoin:miter;stroke-miterlimit:4;stroke-dasharray:none;stroke-dashoffset:0;stroke-opacity:1"
         d="M 13.236518,263.97879 12.932504,284.3949"
         id="path4735"
         inkscape:connector-curvature="0" />
      <path
         style="fill:none;stroke:#000000;stroke-width:0.16500001;stroke-linecap:butt;stroke-linejoin:miter;stroke-miterlimit:4;stroke-dasharray:none;stroke-opacity:1"
         d="m 12.184145,286.71012 c 0,0 0.771741,-0.18709 0.912058,-0.0935"
         id="path4737"
         inkscape:connector-curvature="0" />
      <path
         style="fill:none;stroke:#000000;stroke-width:0.16500001;stroke-linecap:butt;stroke-linejoin:miter;stroke-miterlimit:4;stroke-dasharray:none;stroke-opacity:1"
         d="m 12.184145,287.73911 0.912058,-0.18709"
         id="path4739"
         inkscape:connector-curvature="0" />
      <path
         style="fill:none;stroke:#000000;stroke-width:0.19813947;stroke-linecap:butt;stroke-linejoin:miter;stroke-miterlimit:4;stroke-dasharray:none;stroke-opacity:1"
         d="m 12.184784,288.63944 0.91078,-0.2338"
         id="path4741"
         inkscape:connector-curvature="0" />
      <ellipse
         style="fill:#ffcc00;fill-opacity:1;stroke:#000000;stroke-width:0.02612877;stroke-linecap:round;stroke-miterlimit:4;stroke-dasharray:none;stroke-dashoffset:0;stroke-opacity:1"
         id="ellipse4743"
         cx="9.3602781"
         cy="285.40051"
         rx="0.36438003"
         ry="0.37022692" />
      <ellipse
         ry="0.37022692"
         rx="0.36438003"
         cy="285.33035"
         cx="17.159531"
         id="ellipse4745"
         style="fill:#ffcc00;fill-opacity:1;stroke:#000000;stroke-width:0.02612877;stroke-linecap:round;stroke-miterlimit:4;stroke-dasharray:none;stroke-dashoffset:0;stroke-opacity:1" />
      <ellipse
         style="fill:#ffcc00;fill-opacity:1;stroke:#000000;stroke-width:0.01829323;stroke-linecap:round;stroke-miterlimit:4;stroke-dasharray:none;stroke-dashoffset:0;stroke-opacity:1"
         id="ellipse4747"
         cx="10.517889"
         cy="285.53497"
         rx="0.25136748"
         ry="0.26306081" />
      <ellipse
         ry="0.26306081"
         rx="0.25136748"
         cy="285.4765"
         cx="15.803139"
         id="ellipse4749"
         style="fill:#ffcc00;fill-opacity:1;stroke:#000000;stroke-width:0.01829323;stroke-linecap:round;stroke-miterlimit:4;stroke-dasharray:none;stroke-dashoffset:0;stroke-opacity:1" />
      <ellipse
         style="fill:#ffcc00;fill-opacity:1;stroke:#000000;stroke-width:0.01829323;stroke-linecap:round;stroke-miterlimit:4;stroke-dasharray:none;stroke-dashoffset:0;stroke-opacity:1"
         id="ellipse4751"
         cx="11.570261"
         cy="285.62851"
         rx="0.25136748"
         ry="0.26306081" />
      <ellipse
         ry="0.26306081"
         rx="0.25136748"
         cy="285.53497"
         cx="14.715688"
         id="ellipse4753"
         style="fill:#ffcc00;fill-opacity:1;stroke:#000000;stroke-width:0.01829323;stroke-linecap:round;stroke-miterlimit:4;stroke-dasharray:none;stroke-dashoffset:0;stroke-opacity:1" />
      <path
         sodipodi:type="star"
         style="fill:#ffcc00;fill-opacity:1;stroke:#000000;stroke-width:0.065;stroke-linecap:round;stroke-miterlimit:4;stroke-dasharray:none;stroke-dashoffset:0;stroke-opacity:1"
         id="path4755"
         sodipodi:sides="3"
         sodipodi:cx="12.981287"
         sodipodi:cy="285.88223"
         sodipodi:r1="0.71365887"
         sodipodi:r2="0.35682943"
         sodipodi:arg1="-1.6035715"
         sodipodi:arg2="-0.55637392"
         inkscape:flatsided="true"
         inkscape:rounded="0"
         inkscape:randomized="0"
         d="m 12.957901,285.16896 0.652794,1.04966 -1.23543,0.0405 z"
         inkscape:transform-center-x="0.0043011878"
         inkscape:transform-center-y="-0.12539604"
         transform="matrix(0.66773926,0.03165151,-0.03395365,0.71630788,13.942291,80.657284)" />
      <path
         style="fill:#808080;fill-opacity:1;stroke:#000000;stroke-width:0.00287262;stroke-linecap:round;stroke-miterlimit:4;stroke-dasharray:none;stroke-dashoffset:0;stroke-opacity:1"
         d="m 12.810657,289.65977 c -0.155049,-0.0351 -0.311376,-0.1314 -0.45925,-0.28302 l -0.0777,-0.0797 -0.0042,-0.2854 -0.0042,-0.2854 0.425095,-0.10852 c 0.233802,-0.0597 0.427453,-0.11087 0.430335,-0.11375 0.006,-0.006 -0.03754,-0.18197 -0.04754,-0.19198 -0.0037,-0.004 -0.186161,0.0392 -0.405564,0.0953 -0.219403,0.0561 -0.400288,0.10029 -0.401966,0.0983 -0.0017,-0.002 -0.0067,-0.15728 -0.01107,-0.34506 l -0.008,-0.34141 0.04444,-0.0113 c 0.02444,-0.006 0.218084,-0.0466 0.430312,-0.0896 0.212228,-0.043 0.387724,-0.08 0.38999,-0.0821 0.0065,-0.006 -0.02463,-0.16899 -0.0323,-0.16908 -0.0038,-4e-5 -0.189883,0.0375 -0.413531,0.0835 -0.223649,0.046 -0.4089,0.0813 -0.411668,0.0786 -0.0028,-0.003 -0.0087,-0.19233 -0.01322,-0.42123 -0.0079,-0.40296 -0.0075,-0.41642 0.01411,-0.42301 0.04747,-0.0145 0.326044,-0.0675 0.440199,-0.0837 0.06598,-0.009 0.175218,-0.0172 0.242745,-0.0173 l 0.122777,-2.6e-4 0.03922,-0.0613 c 0.02157,-0.0337 0.03999,-0.0666 0.04093,-0.073 0.0034,-0.0231 -0.08252,-0.0396 -0.208771,-0.0401 -0.141753,-5.3e-4 -0.29361,0.0181 -0.529528,0.0649 -0.08544,0.0169 -0.158881,0.0273 -0.163196,0.023 -0.0043,-0.004 -0.01003,-0.12076 -0.01271,-0.25878 -0.0043,-0.22198 -0.0071,-0.25093 -0.02389,-0.25096 -0.01047,-10e-6 -0.581036,-0.0421 -1.267933,-0.0935 -0.686897,-0.0514 -1.2559493,-0.0935 -1.2645607,-0.0935 -0.00861,0 -0.04064,0.0401 -0.071176,0.0891 -0.096081,0.15415 -0.2361515,0.2851 -0.3049691,0.2851 -0.039432,0 -0.1212433,-0.0601 -0.1712773,-0.12587 -0.065429,-0.086 -0.1186015,-0.17556 -0.1994422,-0.33601 -0.073468,-0.14581 -0.034455,-0.11436 -0.387519,-0.31247 -0.1663045,-0.0933 -0.2166993,-0.12983 -0.2166993,-0.15702 0,-0.0363 0.1813346,-0.15279 0.4394246,-0.28226 0.1402213,-0.0704 0.1887067,-0.11865 0.3333384,-0.33211 0.1046918,-0.15452 0.1774707,-0.24077 0.2151616,-0.25499 0.061983,-0.0234 0.1538575,0.0847 0.2660891,0.31297 0.051574,0.10491 0.077137,0.14487 0.095211,0.14884 0.013589,0.003 0.2772762,0.0371 0.5859719,0.0758 0.308696,0.0387 0.887479,0.11173 1.286183,0.16226 0.398705,0.0505 0.732834,0.0878 0.742508,0.0829 0.0097,-0.005 0.314885,-0.0174 0.678246,-0.0277 0.634293,-0.018 0.718048,-0.0232 2.098899,-0.12996 0.791033,-0.0612 1.454485,-0.11378 1.474338,-0.1169 0.03229,-0.005 0.04061,-0.0157 0.07898,-0.10103 0.09479,-0.21077 0.218215,-0.38226 0.304641,-0.42327 0.115019,-0.0546 0.23341,0.0104 0.433677,0.23804 0.07573,0.0861 0.102208,0.10837 0.140316,0.11815 0.349738,0.0897 0.625302,0.24488 0.656665,0.36984 0.0344,0.13707 -0.197081,0.3748 -0.570994,0.58641 -0.06115,0.0346 -0.06801,0.0427 -0.08474,0.10028 -0.03159,0.10866 -0.120612,0.31893 -0.163243,0.38557 -0.02256,0.0353 -0.05433,0.0729 -0.07061,0.0835 -0.02826,0.0185 -0.03193,0.018 -0.08146,-0.011 -0.02853,-0.0167 -0.100964,-0.0843 -0.160967,-0.15025 -0.06,-0.0659 -0.154805,-0.16712 -0.210671,-0.22488 l -0.101575,-0.10502 -0.541542,0.0491 c -1.662191,0.15066 -2.63506,0.24042 -2.638612,0.24343 -0.0022,0.002 0.01747,0.71809 0.04373,1.59159 l 0.04775,1.58819 -0.06596,0.0585 c -0.153251,0.13583 -0.305291,0.22942 -0.434368,0.26738 -0.09334,0.0274 -0.218432,0.033 -0.30472,0.0135 z m 0.44206,-3.72736 c -0.05752,-0.11093 -0.155637,-0.30036 -0.218034,-0.42095 -0.0624,-0.12058 -0.117078,-0.21924 -0.121515,-0.21924 -0.0069,0 -0.466525,0.8123 -0.466525,0.82454 0,0.009 0.133968,0.0131 0.516719,0.0152 l 0.393942,0.002 z m -1.568578,-0.0545 c 0.200362,-0.10306 0.201091,-0.39685 0.0012,-0.49644 -0.08324,-0.0415 -0.152057,-0.0409 -0.234224,0.002 -0.0732,0.0381 -0.131154,0.12162 -0.144039,0.20755 -0.01626,0.10842 0.0476,0.23488 0.144462,0.28608 0.05767,0.0305 0.174244,0.031 0.232569,9.5e-4 z m -1.052373,-0.0935 c 0.200362,-0.10306 0.201092,-0.39685 0.0012,-0.49645 -0.08324,-0.0415 -0.152056,-0.0409 -0.234223,0.002 -0.0732,0.0381 -0.131154,0.12163 -0.14404,0.20755 -0.01626,0.10843 0.0476,0.23489 0.144462,0.28608 0.05767,0.0305 0.174245,0.031 0.232569,9.6e-4 z m 4.197798,0 c 0.200362,-0.10306 0.201091,-0.39685 0.0012,-0.49645 -0.08324,-0.0415 -0.152056,-0.0409 -0.234223,0.002 -0.0732,0.0381 -0.131154,0.12163 -0.144039,0.20755 -0.01626,0.10843 0.0476,0.23489 0.144461,0.28608 0.05767,0.0305 0.174245,0.031 0.232569,9.6e-4 z m -5.3406864,-0.0188 c 0.1594727,-0.0563 0.272356,-0.24081 0.2511452,-0.41057 -0.016375,-0.13106 -0.1080018,-0.25638 -0.2283307,-0.3123 -0.076369,-0.0355 -0.2303513,-0.0343 -0.3056104,0.002 -0.086002,0.0418 -0.1459483,0.1008 -0.1867348,0.18365 -0.046117,0.0937 -0.052364,0.20658 -0.017105,0.30912 0.028407,0.0826 0.139531,0.19786 0.217124,0.22518 0.068195,0.024 0.2051268,0.0254 0.2695112,0.003 z m 6.4281384,-0.0397 c 0.200362,-0.10306 0.201092,-0.39685 0.0012,-0.49644 -0.08324,-0.0415 -0.152056,-0.0409 -0.234224,0.002 -0.0732,0.0381 -0.131153,0.12162 -0.144039,0.20755 -0.01626,0.10842 0.0476,0.23488 0.144462,0.28608 0.05767,0.0305 0.174244,0.031 0.232569,9.5e-4 z m 1.371113,-0.0305 c 0.159473,-0.0563 0.272356,-0.24081 0.251145,-0.41057 -0.01638,-0.13106 -0.108001,-0.25638 -0.22833,-0.3123 -0.07637,-0.0355 -0.230352,-0.0343 -0.305611,0.002 -0.086,0.0418 -0.145948,0.1008 -0.186735,0.18365 -0.04612,0.0937 -0.05236,0.20658 -0.01711,0.30912 0.02841,0.0826 0.139531,0.19786 0.217124,0.22518 0.06819,0.024 0.205127,0.0254 0.269511,0.003 z"
         id="path4757"
         inkscape:connector-curvature="0" />
      <path
         style="fill:none;stroke:#000000;stroke-width:0.065;stroke-linecap:butt;stroke-linejoin:miter;stroke-miterlimit:4;stroke-dasharray:none;stroke-opacity:1"
         d="m 12.184145,289.32936 c 0.418439,-0.12949 0.828579,-0.27189 1.520095,0.0234"
         id="path4759"
         inkscape:connector-curvature="0"
         sodipodi:nodetypes="cc" />
      <path
         style="fill:#e6e6e6;fill-opacity:1;stroke:#000000;stroke-width:0.0217143;stroke-linecap:round;stroke-miterlimit:4;stroke-dasharray:none;stroke-dashoffset:0;stroke-opacity:1"
         d="m 46.414068,78.010426 c 0,-9.226211 0.02648,-26.384833 0.05885,-38.130271 l 0.05885,-21.355341 1.641634,-1.412975 c 0.902898,-0.777136 1.650553,-1.404056 1.661454,-1.393154 0.0109,0.0109 -0.236822,17.180784 -0.550498,38.155295 -0.313676,20.974511 -0.570741,38.205079 -0.571257,38.290153 -5.82e-4,0.09607 0.06605,0.15468 0.175839,0.15468 0.169555,0 0.176968,-0.06048 0.181445,-1.480505 0.01241,-3.935841 1.11525,-74.975748 1.164709,-75.025207 0.03127,-0.03127 0.676981,0.514041 1.434909,1.211807 l 1.378053,1.268664 -0.05184,1.59099 c -0.03729,1.144401 -1.720794,74.176302 -1.720794,74.649375 0,0.03481 -0.904876,0.08805 -2.010835,0.118314 -1.105959,0.03026 -2.199765,0.07259 -2.43068,0.09406 l -0.419844,0.03904 z"
         id="path4761"
         inkscape:connector-curvature="0"
         transform="matrix(0.26458333,0,0,0.26458333,0,260)" />
      <path
         style="fill:#808080;fill-opacity:1;stroke:#000000;stroke-width:0.0040625;stroke-linecap:round;stroke-miterlimit:4;stroke-dasharray:none;stroke-dashoffset:0;stroke-opacity:1"
         d="m 13.57257,287.56854 c -0.01651,-0.60027 -0.03112,-1.16582 -0.03247,-1.25677 l -0.0025,-0.16537 0.04961,-0.005 0.04961,-0.005 -0.0046,1.18723 c -0.0025,0.65298 -0.01025,1.22072 -0.01714,1.26165 -0.0075,0.0446 -0.02456,-0.3627 -0.04256,-1.01699 z"
         id="path4763"
         inkscape:connector-curvature="0" />
    </g>
    <g
       id="g4801"
       transform="matrix(-1.4972229,-1.0572459,0.95982673,-1.2189072,-220.40286,629.96388)">
      <path
         sodipodi:nodetypes="cccccccccccccccccc"
         inkscape:connector-curvature="0"
         id="path4767"
         d="m 12.184149,289.32936 c 0.506699,0.5985 1.013397,0.54673 1.520096,0.0234 l 0.0222,-3.13416 2.945767,-0.28011 c 0.427032,0.41792 0.604868,0.91055 0.914113,-0.0703 0.718001,-0.41164 1.050208,-0.84101 -0.09354,-1.14591 -0.312512,-0.36515 -0.609785,-0.68864 -0.983854,0.17418 l -2.851464,0.22335 0.467717,-20.32251 -0.888671,-0.81851 -1.028988,0.88867 -0.02338,20.29912 -2.4805899,-0.31421 c -0.4306167,-0.96922 -0.5748511,-0.19428 -0.8870058,0.0803 -0.9776346,0.4764 -0.5771404,0.46463 -0.023386,0.81852 0.2791726,0.57825 0.5063754,0.90447 0.9099528,0.23868 l 2.4342569,0.18188 z"
         style="fill:#808080;fill-opacity:1;stroke:#000000;stroke-width:0.16500001;stroke-linecap:butt;stroke-linejoin:miter;stroke-miterlimit:4;stroke-dasharray:none;stroke-opacity:1" />
      <path
         sodipodi:nodetypes="cc"
         inkscape:connector-curvature="0"
         id="path4769"
         d="m 12.184146,285.16658 1.473321,-0.0468"
         style="fill:none;stroke:#000000;stroke-width:0.16500001;stroke-linecap:butt;stroke-linejoin:miter;stroke-miterlimit:4;stroke-dasharray:none;stroke-opacity:1" />
      <path
         inkscape:connector-curvature="0"
         id="path4771"
         d="M 13.236518,263.97879 12.932504,284.3949"
         style="fill:none;stroke:#000000;stroke-width:0.065;stroke-linecap:round;stroke-linejoin:miter;stroke-miterlimit:4;stroke-dasharray:none;stroke-dashoffset:0;stroke-opacity:1" />
      <path
         inkscape:connector-curvature="0"
         id="path4773"
         d="m 12.184145,286.71012 c 0,0 0.771741,-0.18709 0.912058,-0.0935"
         style="fill:none;stroke:#000000;stroke-width:0.16500001;stroke-linecap:butt;stroke-linejoin:miter;stroke-miterlimit:4;stroke-dasharray:none;stroke-opacity:1" />
      <path
         inkscape:connector-curvature="0"
         id="path4775"
         d="m 12.184145,287.73911 0.912058,-0.18709"
         style="fill:none;stroke:#000000;stroke-width:0.16500001;stroke-linecap:butt;stroke-linejoin:miter;stroke-miterlimit:4;stroke-dasharray:none;stroke-opacity:1" />
      <path
         inkscape:connector-curvature="0"
         id="path4777"
         d="m 12.184784,288.63944 0.91078,-0.2338"
         style="fill:none;stroke:#000000;stroke-width:0.19813947;stroke-linecap:butt;stroke-linejoin:miter;stroke-miterlimit:4;stroke-dasharray:none;stroke-opacity:1" />
      <ellipse
         ry="0.37022692"
         rx="0.36438003"
         cy="285.40051"
         cx="9.3602781"
         id="ellipse4779"
         style="fill:#ffcc00;fill-opacity:1;stroke:#000000;stroke-width:0.02612877;stroke-linecap:round;stroke-miterlimit:4;stroke-dasharray:none;stroke-dashoffset:0;stroke-opacity:1" />
      <ellipse
         style="fill:#ffcc00;fill-opacity:1;stroke:#000000;stroke-width:0.02612877;stroke-linecap:round;stroke-miterlimit:4;stroke-dasharray:none;stroke-dashoffset:0;stroke-opacity:1"
         id="ellipse4781"
         cx="17.159531"
         cy="285.33035"
         rx="0.36438003"
         ry="0.37022692" />
      <ellipse
         ry="0.26306081"
         rx="0.25136748"
         cy="285.53497"
         cx="10.517889"
         id="ellipse4783"
         style="fill:#ffcc00;fill-opacity:1;stroke:#000000;stroke-width:0.01829323;stroke-linecap:round;stroke-miterlimit:4;stroke-dasharray:none;stroke-dashoffset:0;stroke-opacity:1" />
      <ellipse
         style="fill:#ffcc00;fill-opacity:1;stroke:#000000;stroke-width:0.01829323;stroke-linecap:round;stroke-miterlimit:4;stroke-dasharray:none;stroke-dashoffset:0;stroke-opacity:1"
         id="ellipse4785"
         cx="15.803139"
         cy="285.4765"
         rx="0.25136748"
         ry="0.26306081" />
      <ellipse
         ry="0.26306081"
         rx="0.25136748"
         cy="285.62851"
         cx="11.570261"
         id="ellipse4787"
         style="fill:#ffcc00;fill-opacity:1;stroke:#000000;stroke-width:0.01829323;stroke-linecap:round;stroke-miterlimit:4;stroke-dasharray:none;stroke-dashoffset:0;stroke-opacity:1" />
      <ellipse
         style="fill:#ffcc00;fill-opacity:1;stroke:#000000;stroke-width:0.01829323;stroke-linecap:round;stroke-miterlimit:4;stroke-dasharray:none;stroke-dashoffset:0;stroke-opacity:1"
         id="ellipse4789"
         cx="14.715688"
         cy="285.53497"
         rx="0.25136748"
         ry="0.26306081" />
      <path
         transform="matrix(0.66773926,0.03165151,-0.03395365,0.71630788,13.942291,80.657284)"
         inkscape:transform-center-y="-0.12539604"
         inkscape:transform-center-x="0.0043011878"
         d="m 12.957901,285.16896 0.652794,1.04966 -1.23543,0.0405 z"
         inkscape:randomized="0"
         inkscape:rounded="0"
         inkscape:flatsided="true"
         sodipodi:arg2="-0.55637392"
         sodipodi:arg1="-1.6035715"
         sodipodi:r2="0.35682943"
         sodipodi:r1="0.71365887"
         sodipodi:cy="285.88223"
         sodipodi:cx="12.981287"
         sodipodi:sides="3"
         id="path4791"
         style="fill:#ffcc00;fill-opacity:1;stroke:#000000;stroke-width:0.065;stroke-linecap:round;stroke-miterlimit:4;stroke-dasharray:none;stroke-dashoffset:0;stroke-opacity:1"
         sodipodi:type="star" />
      <path
         inkscape:connector-curvature="0"
         id="path4793"
         d="m 12.810657,289.65977 c -0.155049,-0.0351 -0.311376,-0.1314 -0.45925,-0.28302 l -0.0777,-0.0797 -0.0042,-0.2854 -0.0042,-0.2854 0.425095,-0.10852 c 0.233802,-0.0597 0.427453,-0.11087 0.430335,-0.11375 0.006,-0.006 -0.03754,-0.18197 -0.04754,-0.19198 -0.0037,-0.004 -0.186161,0.0392 -0.405564,0.0953 -0.219403,0.0561 -0.400288,0.10029 -0.401966,0.0983 -0.0017,-0.002 -0.0067,-0.15728 -0.01107,-0.34506 l -0.008,-0.34141 0.04444,-0.0113 c 0.02444,-0.006 0.218084,-0.0466 0.430312,-0.0896 0.212228,-0.043 0.387724,-0.08 0.38999,-0.0821 0.0065,-0.006 -0.02463,-0.16899 -0.0323,-0.16908 -0.0038,-4e-5 -0.189883,0.0375 -0.413531,0.0835 -0.223649,0.046 -0.4089,0.0813 -0.411668,0.0786 -0.0028,-0.003 -0.0087,-0.19233 -0.01322,-0.42123 -0.0079,-0.40296 -0.0075,-0.41642 0.01411,-0.42301 0.04747,-0.0145 0.326044,-0.0675 0.440199,-0.0837 0.06598,-0.009 0.175218,-0.0172 0.242745,-0.0173 l 0.122777,-2.6e-4 0.03922,-0.0613 c 0.02157,-0.0337 0.03999,-0.0666 0.04093,-0.073 0.0034,-0.0231 -0.08252,-0.0396 -0.208771,-0.0401 -0.141753,-5.3e-4 -0.29361,0.0181 -0.529528,0.0649 -0.08544,0.0169 -0.158881,0.0273 -0.163196,0.023 -0.0043,-0.004 -0.01003,-0.12076 -0.01271,-0.25878 -0.0043,-0.22198 -0.0071,-0.25093 -0.02389,-0.25096 -0.01047,-10e-6 -0.581036,-0.0421 -1.267933,-0.0935 -0.686897,-0.0514 -1.2559493,-0.0935 -1.2645607,-0.0935 -0.00861,0 -0.04064,0.0401 -0.071176,0.0891 -0.096081,0.15415 -0.2361515,0.2851 -0.3049691,0.2851 -0.039432,0 -0.1212433,-0.0601 -0.1712773,-0.12587 -0.065429,-0.086 -0.1186015,-0.17556 -0.1994422,-0.33601 -0.073468,-0.14581 -0.034455,-0.11436 -0.387519,-0.31247 -0.1663045,-0.0933 -0.2166993,-0.12983 -0.2166993,-0.15702 0,-0.0363 0.1813346,-0.15279 0.4394246,-0.28226 0.1402213,-0.0704 0.1887067,-0.11865 0.3333384,-0.33211 0.1046918,-0.15452 0.1774707,-0.24077 0.2151616,-0.25499 0.061983,-0.0234 0.1538575,0.0847 0.2660891,0.31297 0.051574,0.10491 0.077137,0.14487 0.095211,0.14884 0.013589,0.003 0.2772762,0.0371 0.5859719,0.0758 0.308696,0.0387 0.887479,0.11173 1.286183,0.16226 0.398705,0.0505 0.732834,0.0878 0.742508,0.0829 0.0097,-0.005 0.314885,-0.0174 0.678246,-0.0277 0.634293,-0.018 0.718048,-0.0232 2.098899,-0.12996 0.791033,-0.0612 1.454485,-0.11378 1.474338,-0.1169 0.03229,-0.005 0.04061,-0.0157 0.07898,-0.10103 0.09479,-0.21077 0.218215,-0.38226 0.304641,-0.42327 0.115019,-0.0546 0.23341,0.0104 0.433677,0.23804 0.07573,0.0861 0.102208,0.10837 0.140316,0.11815 0.349738,0.0897 0.625302,0.24488 0.656665,0.36984 0.0344,0.13707 -0.197081,0.3748 -0.570994,0.58641 -0.06115,0.0346 -0.06801,0.0427 -0.08474,0.10028 -0.03159,0.10866 -0.120612,0.31893 -0.163243,0.38557 -0.02256,0.0353 -0.05433,0.0729 -0.07061,0.0835 -0.02826,0.0185 -0.03193,0.018 -0.08146,-0.011 -0.02853,-0.0167 -0.100964,-0.0843 -0.160967,-0.15025 -0.06,-0.0659 -0.154805,-0.16712 -0.210671,-0.22488 l -0.101575,-0.10502 -0.541542,0.0491 c -1.662191,0.15066 -2.63506,0.24042 -2.638612,0.24343 -0.0022,0.002 0.01747,0.71809 0.04373,1.59159 l 0.04775,1.58819 -0.06596,0.0585 c -0.153251,0.13583 -0.305291,0.22942 -0.434368,0.26738 -0.09334,0.0274 -0.218432,0.033 -0.30472,0.0135 z m 0.44206,-3.72736 c -0.05752,-0.11093 -0.155637,-0.30036 -0.218034,-0.42095 -0.0624,-0.12058 -0.117078,-0.21924 -0.121515,-0.21924 -0.0069,0 -0.466525,0.8123 -0.466525,0.82454 0,0.009 0.133968,0.0131 0.516719,0.0152 l 0.393942,0.002 z m -1.568578,-0.0545 c 0.200362,-0.10306 0.201091,-0.39685 0.0012,-0.49644 -0.08324,-0.0415 -0.152057,-0.0409 -0.234224,0.002 -0.0732,0.0381 -0.131154,0.12162 -0.144039,0.20755 -0.01626,0.10842 0.0476,0.23488 0.144462,0.28608 0.05767,0.0305 0.174244,0.031 0.232569,9.5e-4 z m -1.052373,-0.0935 c 0.200362,-0.10306 0.201092,-0.39685 0.0012,-0.49645 -0.08324,-0.0415 -0.152056,-0.0409 -0.234223,0.002 -0.0732,0.0381 -0.131154,0.12163 -0.14404,0.20755 -0.01626,0.10843 0.0476,0.23489 0.144462,0.28608 0.05767,0.0305 0.174245,0.031 0.232569,9.6e-4 z m 4.197798,0 c 0.200362,-0.10306 0.201091,-0.39685 0.0012,-0.49645 -0.08324,-0.0415 -0.152056,-0.0409 -0.234223,0.002 -0.0732,0.0381 -0.131154,0.12163 -0.144039,0.20755 -0.01626,0.10843 0.0476,0.23489 0.144461,0.28608 0.05767,0.0305 0.174245,0.031 0.232569,9.6e-4 z m -5.3406864,-0.0188 c 0.1594727,-0.0563 0.272356,-0.24081 0.2511452,-0.41057 -0.016375,-0.13106 -0.1080018,-0.25638 -0.2283307,-0.3123 -0.076369,-0.0355 -0.2303513,-0.0343 -0.3056104,0.002 -0.086002,0.0418 -0.1459483,0.1008 -0.1867348,0.18365 -0.046117,0.0937 -0.052364,0.20658 -0.017105,0.30912 0.028407,0.0826 0.139531,0.19786 0.217124,0.22518 0.068195,0.024 0.2051268,0.0254 0.2695112,0.003 z m 6.4281384,-0.0397 c 0.200362,-0.10306 0.201092,-0.39685 0.0012,-0.49644 -0.08324,-0.0415 -0.152056,-0.0409 -0.234224,0.002 -0.0732,0.0381 -0.131153,0.12162 -0.144039,0.20755 -0.01626,0.10842 0.0476,0.23488 0.144462,0.28608 0.05767,0.0305 0.174244,0.031 0.232569,9.5e-4 z m 1.371113,-0.0305 c 0.159473,-0.0563 0.272356,-0.24081 0.251145,-0.41057 -0.01638,-0.13106 -0.108001,-0.25638 -0.22833,-0.3123 -0.07637,-0.0355 -0.230352,-0.0343 -0.305611,0.002 -0.086,0.0418 -0.145948,0.1008 -0.186735,0.18365 -0.04612,0.0937 -0.05236,0.20658 -0.01711,0.30912 0.02841,0.0826 0.139531,0.19786 0.217124,0.22518 0.06819,0.024 0.205127,0.0254 0.269511,0.003 z"
         style="fill:#808080;fill-opacity:1;stroke:#000000;stroke-width:0.00287262;stroke-linecap:round;stroke-miterlimit:4;stroke-dasharray:none;stroke-dashoffset:0;stroke-opacity:1" />
      <path
         sodipodi:nodetypes="cc"
         inkscape:connector-curvature="0"
         id="path4795"
         d="m 12.184145,289.32936 c 0.418439,-0.12949 0.828579,-0.27189 1.520095,0.0234"
         style="fill:none;stroke:#000000;stroke-width:0.065;stroke-linecap:butt;stroke-linejoin:miter;stroke-miterlimit:4;stroke-dasharray:none;stroke-opacity:1" />
      <path
         transform="matrix(0.26458333,0,0,0.26458333,0,260)"
         inkscape:connector-curvature="0"
         id="path4797"
         d="m 46.414068,78.010426 c 0,-9.226211 0.02648,-26.384833 0.05885,-38.130271 l 0.05885,-21.355341 1.641634,-1.412975 c 0.902898,-0.777136 1.650553,-1.404056 1.661454,-1.393154 0.0109,0.0109 -0.236822,17.180784 -0.550498,38.155295 -0.313676,20.974511 -0.570741,38.205079 -0.571257,38.290153 -5.82e-4,0.09607 0.06605,0.15468 0.175839,0.15468 0.169555,0 0.176968,-0.06048 0.181445,-1.480505 0.01241,-3.935841 1.11525,-74.975748 1.164709,-75.025207 0.03127,-0.03127 0.676981,0.514041 1.434909,1.211807 l 1.378053,1.268664 -0.05184,1.59099 c -0.03729,1.144401 -1.720794,74.176302 -1.720794,74.649375 0,0.03481 -0.904876,0.08805 -2.010835,0.118314 -1.105959,0.03026 -2.199765,0.07259 -2.43068,0.09406 l -0.419844,0.03904 z"
         style="fill:#e6e6e6;fill-opacity:1;stroke:#000000;stroke-width:0.0217143;stroke-linecap:round;stroke-miterlimit:4;stroke-dasharray:none;stroke-dashoffset:0;stroke-opacity:1" />
      <path
         inkscape:connector-curvature="0"
         id="path4799"
         d="m 13.57257,287.56854 c -0.01651,-0.60027 -0.03112,-1.16582 -0.03247,-1.25677 l -0.0025,-0.16537 0.04961,-0.005 0.04961,-0.005 -0.0046,1.18723 c -0.0025,0.65298 -0.01025,1.22072 -0.01714,1.26165 -0.0075,0.0446 -0.02456,-0.3627 -0.04256,-1.01699 z"
         style="fill:#808080;fill-opacity:1;stroke:#000000;stroke-width:0.0040625;stroke-linecap:round;stroke-miterlimit:4;stroke-dasharray:none;stroke-dashoffset:0;stroke-opacity:1" />
    </g>
    <g
       id="g4672"
       transform="translate(0.42555237,0.22227586)"
       style="opacity:1;fill:#1a1a1a;fill-opacity:1">
      <path
         sodipodi:nodetypes="cccccc"
         inkscape:connector-curvature="0"
         id="path4638"
         d="m 25.106192,293.94266 -8.6408,-17.35673 c -1.166617,-2.28521 -4.073652,-10.09033 3.422651,-10.59065 h 10.13742 c 7.872006,0.32512 4.951548,6.90776 2.95308,10.91964 z"
         inkscape:transform-center-y="4.007766"
         inkscape:transform-center-x="-0.028332826"
         style="fill:#1a1a1a;fill-opacity:1;stroke:#030303;stroke-width:0.3883501;stroke-miterlimit:4;stroke-dasharray:none;stroke-opacity:1" />
      <path
         inkscape:connector-curvature="0"
         id="path4649"
         d="m 28.824085,267.95154 -6.160755,6.80041 3.496773,-0.65646 -5.538914,6.35112 9.610076,-7.85718 -4.129698,0.19561 z"
         style="fill:#fffa00;fill-opacity:1;stroke:#000000;stroke-width:0.05279454;stroke-linecap:butt;stroke-linejoin:miter;stroke-miterlimit:4;stroke-dasharray:none;stroke-opacity:1"
         sodipodi:nodetypes="ccccccc" />
      <text
         transform="scale(0.96912455,1.0318591)"
         id="text4660"
         y="264.92926"
         x="16.918711"
         style="font-style:normal;font-variant:normal;font-weight:bold;font-stretch:normal;font-size:7.33423805px;line-height:1.25;font-family:Kinnari;-inkscape-font-specification:'Kinnari, Bold';font-variant-ligatures:normal;font-variant-caps:normal;font-variant-numeric:normal;font-feature-settings:normal;text-align:start;letter-spacing:0px;word-spacing:0px;writing-mode:lr-tb;text-anchor:start;fill:#1a1a1a;fill-opacity:1;stroke:#ffffff;stroke-width:0.18335657"
         xml:space="preserve"><tspan
           style="font-style:normal;font-variant:normal;font-weight:bold;font-stretch:normal;font-size:7.33423805px;font-family:Kinnari;-inkscape-font-specification:'Kinnari, Bold';font-variant-ligatures:normal;font-variant-caps:normal;font-variant-numeric:normal;font-feature-settings:normal;text-align:start;writing-mode:lr-tb;text-anchor:start;fill:#1a1a1a;fill-opacity:1;stroke:#ffffff;stroke-width:0.18335657"
           y="264.92926"
           x="16.918711"
           id="tspan4658"
           sodipodi:role="line">M</tspan></text>
      <text
         transform="scale(1.0172684,0.98302472)"
         id="text4664"
         y="287.85593"
         x="24.099838"
         style="font-style:normal;font-variant:normal;font-weight:bold;font-stretch:normal;font-size:7.71768188px;line-height:1.25;font-family:Kinnari;-inkscape-font-specification:'Kinnari, Bold';font-variant-ligatures:normal;font-variant-caps:normal;font-variant-numeric:normal;font-feature-settings:normal;text-align:start;letter-spacing:0px;word-spacing:0px;writing-mode:lr-tb;text-anchor:start;fill:#1a1a1a;fill-opacity:1;stroke:#ffffff;stroke-width:0.19294205"
         xml:space="preserve"><tspan
           style="font-style:normal;font-variant:normal;font-weight:bold;font-stretch:normal;font-size:7.71768188px;font-family:Kinnari;-inkscape-font-specification:'Kinnari, Bold';font-variant-ligatures:normal;font-variant-caps:normal;font-variant-numeric:normal;font-feature-settings:normal;text-align:start;writing-mode:lr-tb;text-anchor:start;fill:#1a1a1a;fill-opacity:1;stroke:#ffffff;stroke-width:0.19294205"
           y="287.85593"
           x="24.099838"
           id="tspan4662"
           sodipodi:role="line">C</tspan></text>
    </g>
  </g>
</svg>
